<svg width="149" height="54" viewBox="0 0 149 54" fill="none" xmlns="http://www.w3.org/2000/svg">
<path d="M9.50965 23.017C9.47406 23.1215 9.53365 23.2066 9.64208 23.2066H19.7512C19.8597 23.2066 19.9198 23.1212 19.885 23.0165L14.893 8.03325C14.8582 7.92847 14.7969 7.8428 14.7572 7.8428C14.7175 7.8428 14.6557 7.92847 14.6201 8.03268L9.50965 23.017ZM21.3644 27.4529C21.3294 27.3481 21.2118 27.2628 21.1031 27.2628H8.26618C8.15775 27.2628 8.03995 27.3481 8.00436 27.4526L4.99515 36.2916C4.95955 36.3958 4.84147 36.4814 4.73332 36.4814H0.273994C0.165566 36.4814 0.107076 36.3963 0.143771 36.2924L12.6863 0.878288C12.723 0.774357 12.8419 0.689529 12.9506 0.689529H16.6363C16.7448 0.689529 16.8631 0.774639 16.8993 0.878849L29.1781 36.2918C29.2142 36.3961 29.1552 36.4814 29.0465 36.4814H24.5885C24.4801 36.4814 24.3626 36.3958 24.3275 36.2913L21.3644 27.4529Z" fill="black"/>
<path d="M97.2479 23.017C97.2123 23.1215 97.2721 23.2066 97.3803 23.2066H107.489C107.598 23.2066 107.658 23.1212 107.623 23.0165L102.631 8.03325C102.596 7.92847 102.535 7.8428 102.496 7.8428C102.456 7.8428 102.394 7.92847 102.358 8.03268L97.2479 23.017ZM109.103 27.4529C109.068 27.3481 108.95 27.2628 108.842 27.2628H96.0044C95.8962 27.2628 95.7781 27.3481 95.7426 27.4526L92.7328 36.2916C92.6972 36.3958 92.5791 36.4814 92.471 36.4814H88.0127C87.9043 36.4814 87.8456 36.3963 87.8825 36.2924L100.425 0.878288C100.461 0.774357 100.58 0.689529 100.689 0.689529H104.375C104.483 0.689529 104.601 0.774639 104.637 0.878849L116.917 36.2918C116.953 36.3961 116.893 36.4814 116.785 36.4814H112.327C112.218 36.4814 112.101 36.3958 112.066 36.2913L109.103 27.4529Z" fill="black"/>
<path d="M83.2192 32.8116C83.2192 32.7479 83.1306 32.6956 83.0219 32.6956H66.2733C66.1652 32.6956 66.076 32.6054 66.076 32.4948V0.889877C66.076 0.779488 65.9875 0.689316 65.8788 0.689316H61.5168C61.4084 0.689316 61.3196 0.779488 61.3196 0.889877V36.2801C61.3196 36.3908 61.4084 36.481 61.5168 36.481H81.7636C81.872 36.481 81.9909 36.3961 82.0279 36.2922L83.1524 33.1167C83.1894 33.0127 83.2192 32.8754 83.2192 32.8116Z" fill="black"/>
<path d="M30.5085 49.1202L30.3974 52.3417C30.3692 53.128 30.1606 53.5738 29.4165 53.5811H29.326V53.0783C29.7782 53.0783 29.8547 52.8448 29.8687 52.3701L30.0006 48.6174H31.9829V53.5738H31.4402V49.1202H30.5085Z" fill="black"/>
<path d="M34.2215 52.101H35.3066L34.7568 49.2404L34.2215 52.101ZM34.152 52.5751L33.9641 53.5737H33.4634L34.3954 48.6173H35.1814L36.1131 53.5737H35.5707L35.3831 52.5751H34.152Z" fill="black"/>
<path d="M38.7206 53.0717C39.117 53.0717 39.2978 52.8664 39.2978 52.406V51.79C39.2978 51.3085 39.0892 51.1596 38.6927 51.1596H38.1224V53.0717H38.7206ZM38.6927 50.6641C39.4506 50.6641 39.8404 51.0324 39.8404 51.8254V52.3706C39.8404 53.1425 39.4854 53.5742 38.7206 53.5742H37.5869V48.6178H39.6385V49.1206H38.1224V50.6641H38.6927Z" fill="black"/>
<path d="M41.9046 52.4059C41.9046 52.8589 42.0925 53.121 42.4821 53.121C42.8783 53.121 43.0593 52.8589 43.0593 52.4059V49.7859C43.0593 49.3399 42.8783 49.0708 42.4821 49.0708C42.0925 49.0708 41.9046 49.3399 41.9046 49.7859V52.4059ZM41.3694 49.8143C41.3694 49.0567 41.738 48.568 42.4821 48.568C43.2328 48.568 43.6014 49.0567 43.6014 49.8143V52.3775C43.6014 53.128 43.2328 53.6235 42.4821 53.6235C41.738 53.6235 41.3694 53.128 41.3694 52.3775V49.8143Z" fill="black"/>
<path d="M46.1814 51.1243C46.5847 51.1243 46.7795 50.933 46.7795 50.4585V49.8001C46.7795 49.347 46.6195 49.1203 46.223 49.1203H45.7016V51.1243H46.1814ZM46.223 48.6175C46.9881 48.6175 47.3148 49.0779 47.3148 49.8285V50.4234C47.3148 51.2091 46.9533 51.62 46.1814 51.62H45.7016V53.5742H45.1592V48.6175H46.223Z" fill="black"/>
<path d="M49.4005 52.101H50.4856L49.9357 49.2404L49.4005 52.101ZM49.331 52.5751L49.1431 53.5737H48.6423L49.5743 48.6173H50.3603L51.2921 53.5737H50.7496L50.5618 52.5751H49.331Z" fill="black"/>
<path d="M53.5028 53.5742V49.1206H52.6058V48.6175H54.9427V49.1206H54.0455V53.5742H53.5028Z" fill="black"/>
<path d="M56.8823 52.4059C56.8823 52.8589 57.0702 53.121 57.4597 53.121C57.8559 53.121 58.0369 52.8589 58.0369 52.4059V49.7859C58.0369 49.3399 57.8559 49.0708 57.4597 49.0708C57.0702 49.0708 56.8823 49.3399 56.8823 49.7859V52.4059ZM56.347 49.8143C56.347 49.0567 56.7156 48.568 57.4597 48.568C58.2105 48.568 58.5791 49.0567 58.5791 49.8143V52.3775C58.5791 53.128 58.2105 53.6235 57.4597 53.6235C56.7156 53.6235 56.347 53.128 56.347 52.3775V49.8143Z" fill="black"/>
<path d="M61.1587 51.1243C61.5621 51.1243 61.7569 50.933 61.7569 50.4585V49.8001C61.7569 49.347 61.5968 49.1203 61.2004 49.1203H60.6789V51.1243H61.1587ZM61.2004 48.6175C61.9654 48.6175 62.2921 49.0779 62.2921 49.8285V50.4234C62.2921 51.2091 61.9307 51.62 61.1587 51.62H60.6789V53.5742H60.1362V48.6175H61.2004Z" fill="black"/>
<path d="M65.0388 51.2869L64.3223 53.5742H63.7589V48.6175H64.2392V52.3138L64.6702 50.9473L65.4491 48.6175H66.0544V53.5742H65.5674V49.6302L65.0388 51.2869Z" fill="black"/>
<path d="M68.7586 49.1201C68.3552 49.1201 68.1955 49.3538 68.1955 49.7999V50.2743C68.1955 50.8123 68.4529 50.9541 68.8769 50.9541H69.2872V49.1201H68.7586ZM68.9048 51.4566C68.4529 51.4566 68.1955 51.6339 68.1955 52.1929V52.9721C68.1955 53.3046 68.1673 53.4324 68.105 53.5737H67.5557C67.639 53.4038 67.6528 53.1987 67.6528 52.9791V52.2072C67.6528 51.6763 67.82 51.308 68.2581 51.1738C67.8476 51.0389 67.66 50.6991 67.66 50.1538V49.7502C67.66 49.014 67.98 48.6173 68.7448 48.6173H69.8299V53.5737H69.2872V51.4566H68.9048Z" fill="black"/>
<path d="M75.6986 49.8143V50.2604H75.1837V49.7857C75.1837 49.3399 75.0099 49.0708 74.6135 49.0708C74.2239 49.0708 74.0432 49.3399 74.0432 49.7857V52.4059C74.0432 52.8516 74.2239 53.1207 74.6135 53.1207C75.0099 53.1207 75.1837 52.8516 75.1837 52.4059V51.7615H75.6986V52.3775C75.6986 53.128 75.3507 53.6235 74.5997 53.6235C73.8553 53.6235 73.5079 53.128 73.5079 52.3775V49.8143C73.5079 49.0638 73.8553 48.568 74.5997 48.568C75.3507 48.568 75.6986 49.0638 75.6986 49.8143Z" fill="black"/>
<path d="M77.9787 53.5742V49.1206H77.0818V48.6175H79.4186V49.1206H78.5214V53.5742H77.9787Z" fill="black"/>
<path d="M82.1439 51.2869L81.4274 53.5742H80.864V48.6175H81.3444V52.3138L81.7753 50.9473L82.5542 48.6175H83.1595V53.5742H82.6725V49.6302L82.1439 51.2869Z" fill="black"/>
<path d="M85.7876 49.1202L85.6764 52.3417C85.6483 53.128 85.4397 53.5738 84.6956 53.5811H84.6051V53.0783C85.0573 53.0783 85.1337 52.8448 85.1478 52.3701L85.2797 48.6174H87.262V53.5738H86.7193V49.1202H85.7876Z" fill="black"/>
<path d="M89.9946 49.1201C89.5909 49.1201 89.4312 49.3538 89.4312 49.7999V50.2743C89.4312 50.8123 89.6886 50.9541 90.1127 50.9541H90.5229V49.1201H89.9946ZM90.1405 51.4566C89.6886 51.4566 89.4312 51.6339 89.4312 52.1929V52.9721C89.4312 53.3046 89.403 53.4324 89.3407 53.5737H88.7914C88.8747 53.4038 88.8885 53.1987 88.8885 52.9791V52.2072C88.8885 51.6763 89.0557 51.308 89.4938 51.1738C89.0833 51.0389 88.8957 50.6991 88.8957 50.1538V49.7502C88.8957 49.014 89.2154 48.6173 89.9805 48.6173H91.0656V53.5737H90.5229V51.4566H90.1405Z" fill="black"/>
<path d="M95.2786 52.4059C95.2786 52.8589 95.4665 53.121 95.8561 53.121C96.2523 53.121 96.4333 52.8589 96.4333 52.4059V49.7859C96.4333 49.3399 96.2523 49.0708 95.8561 49.0708C95.4665 49.0708 95.2786 49.3399 95.2786 49.7859V52.4059ZM94.7434 49.8143C94.7434 49.0567 95.112 48.568 95.8561 48.568C96.6068 48.568 96.9754 49.0567 96.9754 49.8143V52.3775C96.9754 53.128 96.6068 53.6235 95.8561 53.6235C95.112 53.6235 94.7434 53.128 94.7434 52.3775V49.8143Z" fill="black"/>
<path d="M99.2769 53.5742V49.1206H98.38V48.6175H100.717V49.1206H99.8196V53.5742H99.2769Z" fill="black"/>
<path d="M104.902 52.101H105.987L105.438 49.2404L104.902 52.101ZM104.833 52.5751L104.645 53.5737H104.144L105.076 48.6173H105.862L106.794 53.5737H106.251L106.064 52.5751H104.833Z" fill="black"/>
<path d="M110.187 47.6052C110.187 48.0369 109.902 48.2993 109.436 48.2993C108.97 48.2993 108.699 48.0369 108.685 47.6052H109.026C109.046 47.8813 109.206 47.9662 109.436 47.9662C109.666 47.9662 109.832 47.8813 109.853 47.6052H110.187ZM109.582 51.188L108.824 53.5742H108.261V48.6175H108.741V52.3141L109.193 50.8835L109.951 48.6175H110.556V53.5742H110.069V49.6302L109.582 51.188Z" fill="black"/>
<path d="M114.317 49.8143V49.9416C114.317 50.4514 114.116 50.8196 113.719 50.9682C114.129 51.1098 114.317 51.4924 114.317 51.9879V52.3775C114.317 53.128 113.97 53.6235 113.219 53.6235C112.474 53.6235 112.127 53.128 112.127 52.3775V51.8957H112.634V52.4059C112.634 52.8516 112.815 53.1207 113.205 53.1207C113.601 53.1207 113.775 52.8589 113.775 52.3632V51.9736C113.775 51.4924 113.559 51.2373 113.149 51.2373H112.92V50.7418H113.177C113.538 50.7418 113.775 50.4941 113.775 50.0621V49.8354C113.775 49.3256 113.601 49.0708 113.205 49.0708C112.815 49.0708 112.634 49.3399 112.634 49.7857V50.1188H112.134V49.8073C112.134 49.0494 112.474 48.568 113.219 48.568C113.97 48.568 114.317 49.0638 114.317 49.8143Z" fill="black"/>
<path d="M119.032 53.5737H118.496V48.6171H119.032V53.5737ZM116.953 53.0712C117.349 53.0712 117.509 52.8448 117.509 52.3914V51.733C117.509 51.2516 117.314 51.067 116.911 51.067H116.431V53.0712H116.953ZM116.911 50.5718C117.683 50.5718 118.044 50.9822 118.044 51.7684V52.3631C118.044 53.1136 117.71 53.5737 116.953 53.5737H115.888V48.6173H116.431V50.5718H116.911Z" fill="black"/>
<path d="M47.5966 5.17583C47.5966 2.66856 45.5928 0.628419 43.1307 0.628419C41.3236 0.628419 39.765 1.72672 39.062 3.30142C38.3601 1.72672 36.8013 0.628419 34.995 0.628419C32.5315 0.628419 30.5288 2.66856 30.5288 5.17583C30.5288 5.70475 30.6179 6.21205 30.7821 6.6848C30.9686 7.22299 31.2519 7.71456 31.6109 8.13843C31.7637 8.31989 31.9301 8.48814 32.1094 8.64292L38.9216 15.5321C38.9635 15.5748 39.0179 15.5962 39.0731 15.5962C39.1291 15.5962 39.184 15.5748 39.2259 15.5321L46.2914 8.38562L46.2908 8.38477C46.7485 7.91736 47.1077 7.35052 47.3323 6.71738C47.5031 6.23593 47.5966 5.71683 47.5966 5.17583Z" fill="#E52528"/>
<path d="M36.8121 21.9845C36.7351 22.0623 36.6722 22.2165 36.6722 22.3269V34.241V34.6427V36.2806C36.6722 36.391 36.7608 36.4814 36.8695 36.4814H41.2554C41.3641 36.4814 41.453 36.391 41.453 36.2806V34.6427V34.241V22.3491C41.453 22.2387 41.3901 22.0844 41.3128 22.0066" fill="black"/>
<path d="M41.313 34.2227C41.3899 34.1448 41.4531 33.9906 41.4531 33.8802V21.9661V21.5644V19.9265C41.4531 19.8161 41.3643 19.7257 41.2556 19.7257H36.8696C36.7609 19.7257 36.6724 19.8161 36.6724 19.9265V21.5644V21.9664V33.8581C36.6724 33.9684 36.735 34.1227 36.8122 34.2005" fill="black"/>
<path d="M141.773 31.0607C140.573 32.1512 138.887 32.6961 136.714 32.6961H130.947H130.638H127.781C127.648 32.6961 127.539 32.5854 127.539 32.4503V19.937C127.539 19.8019 127.648 19.6912 127.781 19.6912H130.638H130.993H136.473H136.787C138.863 19.7738 140.513 20.421 141.737 21.6339C142.96 22.8468 143.572 24.4445 143.572 26.4271C143.572 28.4268 142.972 29.9711 141.773 31.0607ZM127.539 4.74537C127.539 4.61026 127.648 4.49959 127.781 4.49959H130.638H130.727H134.252C136.505 4.49959 138.231 4.97907 139.431 5.93805C140.629 6.89618 141.229 8.34279 141.229 10.2765C141.229 12.0464 140.675 13.4276 139.564 14.4186C138.453 15.4107 137.012 15.9059 135.242 15.9059H130.993H130.638H127.781C127.648 15.9059 127.539 15.7952 127.539 15.6601V4.74537ZM146.336 20.3555C144.992 18.6511 143.17 17.6351 140.867 17.3067C142.413 16.668 143.652 15.7382 144.586 14.5171C145.519 13.2967 145.986 11.9155 145.986 10.3748C145.986 7.14646 144.948 4.72515 142.871 3.11084C140.795 1.49654 137.922 0.689526 134.252 0.689526H130.727H130.638H123.024C122.891 0.689526 122.783 0.800201 122.783 0.935032V36.2357C122.783 36.3708 122.891 36.4814 123.024 36.4814H130.638H130.947H136.714C140.288 36.4814 143.121 35.6171 145.213 33.8879C147.306 32.1593 148.353 29.6563 148.353 26.3782C148.353 24.0673 147.68 22.06 146.336 20.3555Z" fill="black"/>
</svg>
