<svg width="223" height="28" viewBox="0 0 223 28" fill="none" xmlns="http://www.w3.org/2000/svg">
<path d="M86.8704 10.5741C86.8704 11.3647 86.2472 11.9906 85.4961 11.9906H73.3026V5.41882C73.3026 4.62824 73.9259 4.00235 74.677 4.00235H85.4961C86.2631 4.00235 86.8704 4.64471 86.8704 5.41882V10.5741ZM91.3131 0H73.2867C70.0745 0 67.4696 2.68471 67.4696 5.99529V26.5671C67.4696 27.3576 68.0929 27.9835 68.844 27.9835H71.9123C72.6794 27.9835 73.2867 27.3412 73.2867 26.5671V15.9929H91.3131C92.0802 15.9929 92.6875 15.3506 92.6875 14.5765V1.41647C92.6875 0.642353 92.0802 0 91.3131 0Z" fill="#211C1D"/>
<path d="M40.302 5.41882C40.302 4.62824 40.9253 4.00235 41.6764 4.00235H58.3125C59.0796 4.00235 59.6869 3.36 59.6869 2.58588V1.43294C59.7028 0.642353 59.0956 0 58.3285 0H40.302C37.0899 0 34.485 2.68471 34.485 5.99529V26.5671C34.485 27.3576 35.1082 27.9835 35.8593 27.9835H58.3285C59.0956 27.9835 59.7029 27.3412 59.7029 26.5671V25.4141C59.7029 24.6235 59.0796 23.9976 58.3285 23.9976H41.6924C40.9253 23.9976 40.318 23.3553 40.318 22.5812V16.0094H54.4611C55.2282 16.0094 55.8355 15.3671 55.8355 14.5929V13.44C55.8355 12.6494 55.2122 12.0235 54.4611 12.0235H40.318L40.302 5.41882Z" fill="#211C1D"/>
<path d="M105.456 22.5812C105.456 23.3718 106.08 23.9976 106.831 23.9976H123.467C124.234 23.9976 124.841 24.64 124.841 25.4141V26.5671C124.841 27.3576 124.218 27.9835 123.467 27.9835H101.014C100.247 27.9835 99.6393 27.3412 99.6393 26.5671V5.99529C99.6393 2.68471 102.244 0 105.456 0H123.483C124.25 0 124.857 0.642353 124.857 1.41647V2.56941C124.857 3.36 124.234 3.98588 123.483 3.98588H106.831C106.064 3.98588 105.456 4.62824 105.456 5.40235V22.5812Z" fill="#211C1D"/>
<path d="M20.0862 5.41882C20.0862 4.62824 19.463 4.00235 18.7119 4.00235H7.89281C7.12573 4.00235 6.51845 4.64471 6.51845 5.41882V26.5671C6.50247 27.3576 5.87922 28 5.12812 28H2.05978C1.2927 28 0.685425 27.3576 0.685425 26.5835V5.99529C0.685425 2.68471 3.29031 0 6.50247 0H24.5449C25.312 0 25.9193 0.642353 25.9193 1.41647L25.9033 26.5671C25.9033 27.3576 25.28 27.9835 24.5289 27.9835H21.4606C20.6935 27.9835 20.0862 27.3412 20.0862 26.5671V5.41882Z" fill="#211C1D"/>
<path d="M151.194 22.5812C151.194 23.3718 150.57 23.9976 149.819 23.9976H139C138.233 23.9976 137.626 23.3553 137.626 22.5812V5.41882C137.626 4.62824 138.233 4.00235 139 4.00235H149.819C150.586 4.00235 151.194 4.64471 151.194 5.41882V22.5812ZM157.011 5.99529C157.011 2.68471 154.406 0 151.194 0H133.167C132.4 0 131.793 0.642353 131.793 1.41647V26.5671C131.793 27.3576 132.416 27.9835 133.167 27.9835H155.636C156.403 27.9835 157.011 27.3412 157.011 26.5671V5.99529Z" fill="#211C1D"/>
<path d="M217.163 12.0071H203.579V5.41882C203.579 4.62824 204.202 4.00235 204.953 4.00235H215.772C216.54 4.00235 217.147 4.64471 217.147 5.41882L217.163 12.0071ZM222.98 5.99529C222.98 2.68471 220.375 0 217.163 0H199.136C198.369 0 197.762 0.642353 197.762 1.41647V26.5671C197.762 27.3576 198.385 27.9835 199.136 27.9835H202.189C202.956 27.9835 203.563 27.3412 203.563 26.5671V15.9929H217.147V26.5671C217.147 27.3576 217.77 27.9835 218.537 27.9835H221.605C222.373 27.9835 222.98 27.3412 222.98 26.5671V5.99529Z" fill="#211C1D"/>
<path d="M185.553 0C187.998 0 189.995 2.04235 189.995 4.57882V26.5835C189.995 27.3741 189.372 28 188.621 28H185.569C184.801 28 184.194 27.3576 184.194 26.5835V15.9929H170.61V26.5671C170.61 27.3576 169.987 27.9835 169.236 27.9835H166.168C165.401 27.9835 164.793 27.3412 164.793 26.5671V1.41647C164.793 0.625882 165.417 0 166.168 0H169.236C170.003 0 170.61 0.642353 170.61 1.41647V11.9906H184.194V1.41647C184.178 0.642353 184.801 0 185.553 0Z" fill="#211C1D"/>
</svg>
