<svg width="128" height="72" viewBox="0 0 128 72" fill="none" xmlns="http://www.w3.org/2000/svg">
<path d="M13.7927 3.27295L19.6114 39.0569L24.9992 3.27295H35.9902V53.673H28.5192V17.529L23.0596 53.673H15.5886L9.69796 18.0329V53.673H2.80164V3.27295H13.7927Z" fill="#858585"/>
<path d="M54.9563 3.27295L63.002 53.673H55.0281L53.6632 44.5289H43.9653L42.6004 53.673H35.3448L43.3906 3.27295H54.9563ZM48.7783 12.2009L44.971 37.689H52.5857L48.7783 12.2009ZM101.404 53.673L93.7172 33.585L91.2747 38.193V53.673H83.3727V3.27295H91.2747V25.233L101.619 3.27295H109.521L98.5302 25.7369L109.521 53.673H101.404Z" fill="#535353"/>
<path d="M67.5439 53.673H59.4982C60.2884 51.801 60.3602 50.001 60.3602 47.553V39.777C60.3602 34.521 61.6533 30.705 65.6043 29.049C62.0843 27.393 60.432 24.009 60.432 18.825V14.8649C60.432 7.08895 63.952 3.27295 72.1414 3.27295H84.0663V53.673H76.1643V33.153H73.4345C69.8427 33.153 68.2623 34.8809 68.2623 39.561V47.481C68.2623 51.585 67.9749 52.377 67.5439 53.673ZM76.1643 10.4729H72.3569C69.5553 10.4729 68.3341 12.0569 68.3341 15.6569V20.625C68.3341 24.6569 70.13 25.953 73.0753 25.953H76.1643V10.4729Z" fill="#8F181B"/>
<path d="M6.56756 59.6289C5.56416 59.6289 4.77547 59.9656 4.20149 60.6388C3.6275 61.3121 3.34052 62.2325 3.34052 63.4002C3.34052 64.6062 3.619 65.5373 4.17598 66.1936C4.73295 66.8455 5.52589 67.1715 6.5548 67.1715C7.21807 67.1715 7.96425 67.0479 8.79332 66.8007V67.8235C8.39792 67.9683 8.01739 68.0664 7.65174 68.1176C7.2861 68.1729 6.86517 68.2007 6.38899 68.2007C5.01569 68.2007 3.95701 67.7829 3.21297 66.9477C2.47317 66.1082 2.10327 64.9215 2.10327 63.3874C2.10327 62.4243 2.27972 61.5806 2.6326 60.8562C2.98975 60.1317 3.50633 59.5735 4.18236 59.1814C4.86262 58.7894 5.66195 58.5934 6.58032 58.5934C7.5667 58.5934 8.42556 58.7767 9.15684 59.1431L8.6849 60.1402C7.94085 59.7993 7.23508 59.6289 6.56756 59.6289ZM16.676 68.0728L15.5535 65.1772H11.8545L10.7449 68.0728H9.55863L13.2002 58.6892H14.2589L17.8941 68.0728H16.676ZM15.2027 64.1353L14.1569 61.3036L13.7105 59.9038C13.5828 60.4151 13.449 60.8817 13.3087 61.3036L12.25 64.1353H15.2027ZM25.8915 68.0728H24.7181V59.7631H21.7653L21.5676 61.2845C21.2997 63.381 21.0659 64.8832 20.866 65.7908C20.6662 66.6985 20.4047 67.3313 20.0816 67.6892C19.7628 68.0429 19.3269 68.2198 18.7742 68.2198C18.4595 68.2198 18.1769 68.1665 17.926 68.06V67.0757C18.1471 67.1822 18.3873 67.2355 18.6467 67.2355C18.9825 67.2355 19.2483 67.0245 19.4438 66.6027C19.6436 66.1764 19.8584 65.2156 20.088 63.7198C20.3218 62.224 20.5557 60.56 20.7895 58.7276H25.8915V68.0728ZM36.5676 63.3874C36.5676 64.8832 36.1892 66.0593 35.4323 66.9158C34.6799 67.7723 33.6254 68.2007 32.2691 68.2007C30.8958 68.2007 29.8328 67.7809 29.0803 66.9413C28.332 66.0976 27.9579 64.9087 27.9579 63.3746C27.9579 61.8533 28.3299 60.6751 29.074 59.8398C29.8223 59.0004 30.8916 58.5806 32.2818 58.5806C33.6339 58.5806 34.6861 59.0067 35.4387 59.859C36.1913 60.7071 36.5676 61.8831 36.5676 63.3874ZM29.1951 63.3874C29.1951 64.6232 29.4565 65.565 29.9795 66.2127C30.5025 66.8604 31.2657 67.1843 32.2691 67.1843C33.2682 67.1843 34.0272 66.8646 34.5458 66.2255C35.0646 65.5863 35.3239 64.6402 35.3239 63.3874C35.3239 62.1388 35.0667 61.1991 34.5522 60.5686C34.0378 59.9336 33.281 59.6161 32.2818 59.6161C31.27 59.6161 30.5025 59.9378 29.9795 60.5813C29.4565 61.2205 29.1951 62.1558 29.1951 63.3874ZM45.764 68.0728H44.5905V63.7134H39.8073V68.0728H38.6339V58.7276H39.8073V62.6779H44.5905V58.7276H45.764V68.0728ZM57.8112 68.0728H56.3953L52.1798 63.3362V68.0728H51.0064V58.7276H52.1798V63.2532L56.2933 58.7276H57.6262L53.5764 63.2659L57.8112 68.0728ZM65.0497 61.4761C65.0497 62.4307 64.7245 63.1637 64.0739 63.675C63.4234 64.1822 62.5072 64.4357 61.3251 64.4357H60.2537V68.0728H59.0803V58.7276H61.5484C63.8827 58.7276 65.0497 59.6438 65.0497 61.4761ZM60.2537 63.4258H61.1913C62.1181 63.4258 62.79 63.2767 63.2066 62.9783C63.6233 62.6758 63.8316 62.1921 63.8316 61.5273C63.8316 60.9265 63.6382 60.4769 63.2513 60.1786C62.8643 59.8804 62.2606 59.7311 61.44 59.7311H60.2537V63.4258ZM72.5178 68.0728L71.3954 65.1772H67.6964L66.5867 68.0728H65.4005L69.0421 58.6892H70.1007L73.7359 68.0728H72.5178ZM71.0447 64.1353L69.9987 61.3036L69.5523 59.9038C69.4247 60.4151 69.2908 60.8817 69.1505 61.3036L68.0918 64.1353H71.0447ZM79.0166 59.6289C78.0131 59.6289 77.2244 59.9656 76.6504 60.6388C76.0765 61.3121 75.7895 62.2325 75.7895 63.4002C75.7895 64.6062 76.068 65.5373 76.6249 66.1936C77.1819 66.8455 77.9748 67.1715 79.0038 67.1715C79.667 67.1715 80.4132 67.0479 81.2423 66.8007V67.8235C80.8468 67.9683 80.4664 68.0664 80.1007 68.1176C79.7351 68.1729 79.3141 68.2007 78.838 68.2007C77.4646 68.2007 76.406 67.7829 75.6619 66.9477C74.9221 66.1082 74.5522 64.9215 74.5522 63.3874C74.5522 62.4243 74.7287 61.5806 75.0816 60.8562C75.4387 60.1317 75.9553 59.5735 76.6313 59.1814C77.3116 58.7894 78.1109 58.5934 79.0292 58.5934C80.0156 58.5934 80.8745 58.7767 81.6058 59.1431L81.1339 60.1402C80.3898 59.7993 79.684 59.6289 79.0166 59.6289ZM91.2869 63.3874C91.2869 64.8832 90.9086 66.0593 90.1518 66.9158C89.3992 67.7723 88.3448 68.2007 86.9885 68.2007C85.6152 68.2007 84.5523 67.7809 83.7997 66.9413C83.0515 66.0976 82.6772 64.9087 82.6772 63.3746C82.6772 61.8533 83.0492 60.6751 83.7933 59.8398C84.5416 59.0004 85.6109 58.5806 87.0013 58.5806C88.3533 58.5806 89.4056 59.0067 90.1581 59.859C90.9106 60.7071 91.2869 61.8831 91.2869 63.3874ZM83.9145 63.3874C83.9145 64.6232 84.176 65.565 84.699 66.2127C85.2218 66.8604 85.9851 67.1843 86.9885 67.1843C87.9877 67.1843 88.7465 66.8646 89.2653 66.2255C89.784 65.5863 90.0434 64.6402 90.0434 63.3874C90.0434 62.1388 89.7861 61.1991 89.2716 60.5686C88.7572 59.9336 88.0003 59.6161 87.0013 59.6161C85.9893 59.6161 85.2218 59.9378 84.699 60.5813C84.176 61.2205 83.9145 62.1558 83.9145 63.3874ZM96.1148 68.0728H94.9349V59.7631H92.0203V58.7276H99.0102V59.7631H96.1148V68.0728ZM106.491 65.337C106.491 66.2191 106.21 66.8967 105.649 67.3697C105.092 67.8385 104.272 68.0728 103.187 68.0728H100.432V58.7276H101.606V62.6779H103.041C104.168 62.6779 105.024 62.9016 105.611 63.3491C106.198 63.7965 106.491 64.4592 106.491 65.337ZM101.606 67.0757H103.079C103.836 67.0757 104.391 66.9328 104.744 66.6473C105.096 66.3576 105.273 65.9208 105.273 65.337C105.273 64.766 105.09 64.3526 104.724 64.0969C104.359 63.8413 103.755 63.7134 102.913 63.7134H101.606V67.0757ZM109.106 68.0728H107.926V58.7276H109.106V68.0728Z" fill="#8F181B"/>
</svg>
