<svg width="72" height="72" viewBox="0 0 72 72" fill="none" xmlns="http://www.w3.org/2000/svg">
<g clip-path="url(#clip0_33_1291)">
<path d="M10.0828 0.140526C5.38595 0.998339 1.85626 4.13428 0.478137 8.67646C0.140637 9.75928 0.0984497 10.153 0.0984497 11.8124C0.0984497 13.9921 0.464075 15.7077 1.26564 17.3108C2.78439 20.3202 4.97814 22.1765 8.29689 23.2874C9.42189 23.6671 9.63282 23.6812 11.9531 23.6812C14.2734 23.6812 14.4844 23.6671 15.6094 23.2874C18.9281 22.1765 21.1219 20.3202 22.6406 17.3108C23.4422 15.7077 23.8078 13.9921 23.8078 11.8124C23.8078 10.153 23.7656 9.75928 23.4281 8.67646C21.8813 3.55771 17.6203 0.238964 12.375 0.0702133C11.4891 0.0420895 10.4485 0.0702133 10.0828 0.140526ZM14.2734 3.17803C18.1828 4.12021 20.7563 7.3124 21.0516 11.5874C21.3328 15.8343 18.1125 19.9968 13.8516 20.8827C8.94376 21.9093 4.03595 18.703 3.00939 13.7812C2.34845 10.6452 3.61407 6.93271 6.01876 4.97803C8.28283 3.12178 11.3063 2.4749 14.2734 3.17803Z" fill="#003F80"/>
<path d="M15.8203 7.73437C15.6656 7.79062 14.4281 8.95781 13.0781 10.3219C11.7281 11.6859 10.5609 12.7969 10.4906 12.7969C10.4203 12.7969 9.82969 12.2906 9.19687 11.6719C7.95937 10.4625 7.67812 10.35 6.89062 10.7578C6.37031 11.025 6.1875 11.3625 6.1875 12.0375C6.1875 12.5297 6.31406 12.6984 7.9875 14.3578C9.84375 16.2281 10.2516 16.4672 10.9406 16.1859C11.1656 16.0875 12.7828 14.5828 14.5266 12.8109C17.6203 9.71718 17.7188 9.60468 17.7188 9.07031C17.7047 8.01562 16.7484 7.34062 15.8203 7.73437Z" fill="#003F80"/>
<path d="M69.9047 0.196991C69.1875 0.590744 69.2016 0.393867 69.1875 10.3642V19.6876H67.0781H64.9688V13.2189C64.9688 6.28606 64.9547 6.20168 64.2516 5.82199C63.7172 5.55481 49.4438 5.52668 48.8672 5.79387C48.0938 6.14543 48.0938 6.18762 48.0938 13.2189V19.6876H45.9844H43.875V13.2189C43.875 8.50793 43.8328 6.66574 43.7063 6.39856C43.3547 5.62512 43.3828 5.62512 35.4375 5.62512C27.4922 5.62512 27.5203 5.62512 27.1688 6.39856C27.0422 6.66574 27 8.50793 27 13.2189V19.6876H26.1563C25.1719 19.6876 24.5953 19.9267 24.3563 20.4611C24.1453 20.9251 24.1453 21.2626 24.3563 21.7267C24.7219 22.5423 23.3859 22.5001 47.25 22.5001H69.1875V32.0626V41.6251H67.0781H64.9688V35.1564C64.9688 28.1251 64.9688 28.0829 64.1953 27.7314C63.675 27.4923 49.3875 27.4923 48.8672 27.7314C48.0938 28.0829 48.0938 28.1251 48.0938 35.1564V41.6251H45.9844H43.875V35.1564C43.875 28.1251 43.875 28.0829 43.1016 27.7314C42.6094 27.5064 41.5547 27.5204 41.0766 27.7595C40.6828 27.9704 40.3594 28.5048 40.3594 28.9829C40.3594 29.3345 40.7391 30.0939 40.9219 30.0939C41.0063 30.0939 41.0625 32.2173 41.0625 35.8595V41.6251H35.4375H29.8125V35.8595C29.8125 32.2173 29.8688 30.0939 29.9531 30.0939C30.1359 30.0939 30.5156 29.3345 30.5156 28.9689C30.5156 28.5048 30.15 27.9142 29.7422 27.7314C29.2781 27.5204 28.2375 27.5204 27.7734 27.7314C27 28.0829 27 28.1251 27 35.1564V41.6251H26.1563C25.6781 41.6251 25.1297 41.7095 24.9047 41.822C23.9625 42.3142 23.9906 43.8329 24.9609 44.2689C25.2422 44.3954 30.5578 44.4376 47.25 44.4376H69.1875V54.0001V63.5626H67.0781H64.9688V57.0939C64.9688 50.0626 64.9688 50.0204 64.1953 49.6689C63.675 49.4298 49.3875 49.4298 48.8672 49.6689C48.0938 50.0204 48.0938 50.0626 48.0938 57.0939V63.5626H45.9844H43.875V57.0939C43.875 50.1611 43.8609 50.0767 43.1578 49.697C42.5813 49.4017 28.2938 49.4017 27.7172 49.697C27.0141 50.0767 27 50.1611 27 57.0939V63.5626H26.1563C25.6781 63.5626 25.1297 63.647 24.9047 63.7595C23.9766 64.2517 23.9766 65.6861 24.9047 66.1782C25.2422 66.347 28.5188 66.3751 47.25 66.3751H69.1875V68.6251C69.1875 71.072 69.2859 71.4798 69.9047 71.8032C70.6359 72.1829 71.5219 71.9157 71.8313 71.2267C71.9578 70.9454 72 62.7329 72 36.0001C72 9.2673 71.9578 1.05481 71.8313 0.77356C71.5219 0.0985565 70.5938 -0.182693 69.9047 0.196991ZM41.0625 14.0626V19.6876H35.4375H29.8125V14.0626V8.43762H35.4375H41.0625V14.0626ZM62.1563 14.0626V19.6876H56.5313H50.9063V14.0626V8.43762H56.5313H62.1563V14.0626ZM62.1563 36.0001V41.6251H56.5313H50.9063V36.0001V30.3751H56.5313H62.1563V36.0001ZM41.0625 57.9376V63.5626H35.4375H29.8125V57.9376V52.3126H35.4375H41.0625V57.9376ZM62.1563 57.9376V63.5626H56.5313H50.9063V57.9376V52.3126H56.5313H62.1563V57.9376Z" fill="#003F80"/>
<path d="M34.7485 27.7594C33.525 28.4344 34.0453 30.375 35.4375 30.375C36.1547 30.375 36.8438 29.6859 36.8438 28.9828C36.8438 27.9281 35.6766 27.2391 34.7485 27.7594Z" fill="#003F80"/>
<path d="M10.6875 46.8423C8.84535 47.1376 6.8766 48.572 6.04691 50.2173C5.32972 51.6235 5.17503 52.636 5.23128 55.2657C5.28753 57.2626 5.34378 57.6985 5.61097 58.4017L5.93441 59.2173L5.5266 59.5267C4.05003 60.6798 2.96722 62.0298 2.19379 63.7313C1.44847 65.3626 1.23753 66.4454 1.20941 68.836C1.19535 71.1563 1.30785 71.5782 2.05316 71.8595C2.53128 72.0423 21.375 72.0423 21.8532 71.8595C22.5985 71.5782 22.711 71.1563 22.6969 68.836C22.6688 66.4454 22.4578 65.3626 21.7125 63.7313C20.9391 62.0298 19.8563 60.6798 18.3797 59.5267L17.9719 59.2173L18.2953 58.4017C18.5625 57.6985 18.6188 57.2626 18.675 55.2657C18.7313 52.5938 18.5625 51.5392 17.8172 50.161C16.9032 48.4454 15.0469 47.1376 13.0782 46.8282C12.0375 46.6735 11.7703 46.6735 10.6875 46.8423ZM13.711 49.936C14.5547 50.3298 15.4125 51.3282 15.6797 52.2142C15.961 53.1845 15.961 56.3626 15.6797 57.3329C15.4125 58.2188 14.5547 59.2032 13.6828 59.6392C12.7407 60.0892 11.1657 60.0892 10.2235 59.6392C9.3516 59.2032 8.49378 58.2188 8.2266 57.3329C7.94535 56.3626 7.94535 53.1845 8.2266 52.2142C8.59222 51.0048 9.70316 49.9642 11.0391 49.6267C11.7 49.4579 13.0078 49.5985 13.711 49.936ZM8.87347 62.0579C10.9266 63.0985 12.9797 63.0985 15.0328 62.0579C15.6235 61.7626 16.1438 61.5095 16.186 61.4813C16.2282 61.4673 16.6219 61.7204 17.0438 62.072C18.6469 63.3798 19.7016 65.5595 19.8985 67.9642L19.9969 69.1876H11.9532H3.90941L4.00785 67.9501C4.14847 66.2345 4.6266 64.8001 5.47035 63.6048C6.0891 62.7188 7.50941 61.3829 7.72035 61.4813C7.76253 61.5095 8.28285 61.7626 8.87347 62.0579Z" fill="#003F80"/>
</g>
<defs>
<clipPath id="clip0_33_1291">
<rect width="72" height="72" fill="white"/>
</clipPath>
</defs>
</svg>
