<svg width="72" height="72" viewBox="0 0 72 72" fill="none" xmlns="http://www.w3.org/2000/svg">
<g clip-path="url(#clip0_33_1301)">
<path d="M35.2266 0.337494C34.9172 0.506248 33.1172 1.67343 31.2328 2.925L27.8156 5.175L27.0844 5.11874C24.2156 4.87968 18.7031 4.65469 18.4078 4.76718C18.225 4.83749 17.9297 5.03437 17.775 5.21719C17.6062 5.39999 16.5797 7.32656 15.4969 9.49218L13.5281 13.4297L9.52031 15.4406C5.16093 17.6203 4.76718 17.9016 4.79531 18.8156C4.79531 19.0969 4.9078 21.2203 5.03437 23.5406L5.27343 27.7312L2.77031 31.5422C1.34999 33.6937 0.224992 35.55 0.182805 35.8031C0.0843674 36.3797 0.140617 36.4781 2.89687 40.6687L5.24531 44.2266L5.00624 48.9094C4.76718 53.2547 4.76718 53.6062 4.99218 53.9437C5.30156 54.4219 5.61093 54.6047 9.81562 56.7141L13.5281 58.5703L15.4969 62.5078C17.4797 66.4734 17.8031 67.0078 18.3937 67.2328C18.6609 67.3312 23.8641 67.1203 26.9437 66.8812L27.8016 66.8109L31.4297 69.2016C35.4797 71.8734 35.7047 72 36.1828 72C36.3937 72 38.0531 71.0016 40.4437 69.4125L44.3672 66.8391L48.9937 67.0922C53.4234 67.3453 53.6344 67.3453 54.0562 67.1062C54.4219 66.9094 54.8578 66.1359 56.6016 62.7188L58.7109 58.5703L62.7891 56.5172C65.025 55.3781 66.9656 54.3094 67.1062 54.1406C67.4297 53.7469 67.4297 52.9172 67.1484 47.9672L66.9234 44.2547L69.4687 40.4297C71.7047 37.0687 72 36.5484 72 36.0422C72 35.4234 71.8594 35.1703 68.7375 30.4312L66.9656 27.7453L67.2187 23.1891C67.4719 18.9 67.4719 18.6047 67.2469 18.1406C67.0359 17.6906 66.6141 17.4516 62.8594 15.525L58.7109 13.4156L56.6016 9.28125C54.8859 5.92031 54.4078 5.09062 54.0703 4.89375C53.6625 4.66875 53.4094 4.66875 49.0078 4.90781L44.3812 5.14687L40.7109 2.72812C38.6859 1.40625 36.9 0.25312 36.7312 0.154686C36.2953 -0.0843811 35.8453 -0.0281296 35.2266 0.337494ZM39.9234 5.82187C43.2141 7.97343 43.5375 8.15625 44.1281 8.15625C44.4797 8.15625 46.4625 8.05781 48.5578 7.93124C50.6391 7.81875 52.3969 7.7625 52.4672 7.83281C52.5234 7.88906 53.4094 9.59062 54.4359 11.6016C55.4625 13.6125 56.3906 15.3703 56.5172 15.525C56.6437 15.6656 58.4578 16.6359 60.5391 17.6766C62.6344 18.7172 64.35 19.5891 64.3641 19.6031C64.3922 19.6172 64.2937 21.5859 64.1672 23.9625C63.9984 26.9859 63.9703 28.3922 64.0687 28.6594C64.1531 28.8703 65.25 30.6 66.5016 32.5125L68.7937 36L66.3891 39.6703L63.9844 43.3406V44.2125C63.9844 44.6766 64.0828 46.7156 64.1953 48.7125C64.3219 50.7094 64.3922 52.3687 64.3781 52.3828C64.35 52.4109 62.6344 53.2828 60.5391 54.3234C58.4578 55.3641 56.6437 56.3344 56.5172 56.475C56.3906 56.6297 55.4484 58.4156 54.4219 60.4547C53.3812 62.4797 52.4672 64.1812 52.3687 64.2234C52.2703 64.2516 50.4984 64.1812 48.4031 64.0687C46.3219 63.9422 44.3672 63.8438 44.0578 63.8438C43.5516 63.8438 43.0453 64.1391 39.9516 66.1641C37.9969 67.4578 36.3234 68.5266 36.225 68.5687C36.1266 68.6109 34.3828 67.5422 32.3578 66.2203L28.6594 63.7875L24.2297 64.0266C21.7828 64.1672 19.7719 64.2516 19.7578 64.2375C19.7297 64.2094 18.8859 62.5219 17.8594 60.4688C16.8328 58.4156 15.8906 56.6297 15.7641 56.475C15.6375 56.3344 13.8375 55.3641 11.7422 54.3234C9.66093 53.2828 7.91718 52.3969 7.88906 52.3687C7.86093 52.3406 7.94531 50.3859 8.07187 48.0234C8.21249 45.6609 8.26874 43.6078 8.22655 43.4391C8.17031 43.2844 7.08749 41.5687 5.82187 39.6422C4.55624 37.7156 3.51562 36.0844 3.51562 36C3.51562 35.9297 4.54218 34.2984 5.80781 32.3859C7.07343 30.4734 8.14218 28.7719 8.21249 28.6172C8.26874 28.4625 8.21249 26.3953 8.07187 24.0047C7.94531 21.6281 7.86093 19.6594 7.88906 19.6312C7.91718 19.6031 9.67499 18.7172 11.7844 17.6625C14.9484 16.0734 15.6797 15.6516 15.9047 15.2859C16.0453 15.0328 16.9734 13.2469 17.9437 11.3203C18.9281 9.37968 19.7437 7.79062 19.7578 7.7625C19.7859 7.73438 21.5016 7.81875 23.5969 7.93124C25.6781 8.05781 27.6891 8.15625 28.0828 8.15625C28.7437 8.15625 28.9266 8.05781 32.3578 5.77969C34.3266 4.45781 36.0281 3.41718 36.1406 3.43124C36.2531 3.45937 37.9547 4.52812 39.9234 5.82187Z" fill="#003F80"/>
<path d="M32.2875 13.9221C23.6812 15.469 16.5937 21.9799 14.4703 30.2908C13.7672 33.019 13.5562 36.5486 13.9219 39.0377C15.314 48.5158 22.2469 55.9268 31.5703 57.9377C33.5812 58.3736 37.364 58.4721 39.375 58.1627C42.8625 57.6002 45.675 56.5174 48.5437 54.6049C59.2312 47.5033 61.7203 32.8783 54 22.5705C50.7234 18.1971 46.0687 15.244 40.5703 14.0627C38.5031 13.6127 34.4109 13.5424 32.2875 13.9221ZM38.7422 16.8049C46.9969 17.9721 53.3953 23.9908 55.1391 32.2174C55.575 34.2986 55.575 37.7018 55.1391 39.783C53.8734 45.7315 50.2312 50.5408 44.9016 53.269C34.1016 58.7955 20.8969 53.0721 17.5078 41.4143C16.889 39.2486 16.6922 37.7158 16.7765 35.3674C16.889 32.4143 17.4375 30.1361 18.6328 27.633C22.289 20.0252 30.4734 15.6236 38.7422 16.8049Z" fill="#003F80"/>
<path d="M43.9031 29.5595C43.5516 29.897 41.0203 32.2735 38.2922 34.847L33.3422 39.5157L30.5578 36.6892C27.9703 34.0735 27.7312 33.8626 27.1828 33.7923C26.6344 33.722 26.5359 33.7642 26.0859 34.2142C25.5234 34.7767 25.4391 35.4095 25.8469 36.0142C25.9734 36.2251 27.5484 37.8704 29.3203 39.6845C31.4156 41.836 32.6812 43.0173 32.9062 43.0595C33.75 43.2142 34.0734 42.961 39.5297 37.8142C45.9703 31.7532 46.5047 31.2329 46.6172 30.7548C46.8562 29.8126 46.1812 28.9689 45.1828 28.9689C44.6625 28.9689 44.4797 29.0532 43.9031 29.5595Z" fill="#003F80"/>
</g>
<defs>
<clipPath id="clip0_33_1301">
<rect width="72" height="72" fill="white"/>
</clipPath>
</defs>
</svg>
