<svg width="72" height="72" viewBox="0 0 72 72" fill="none" xmlns="http://www.w3.org/2000/svg">
<g clip-path="url(#clip0_33_1309)">
<path d="M32.6672 0.140572C25.7203 0.815575 18.8297 3.62807 13.4156 7.97339C4.68281 15.0187 -0.309378 25.8609 0.0421846 36.9843C0.224997 42.4546 1.40625 47.1937 3.81093 52.0171C8.46562 61.3968 16.9031 68.2171 27.1125 70.8609C34.2703 72.7171 42.1172 72.239 49.05 69.539C53.9578 67.6124 58.0359 64.8984 61.8047 61.0171C64.6875 58.064 66.5859 55.3359 68.3438 51.6937C70.0172 48.2343 71.0156 45.0281 71.6063 41.2734C72.0422 38.4609 72.0422 33.539 71.6063 30.7265C71.0016 26.8874 70.0031 23.6953 68.2734 20.1796C66.5438 16.6499 64.5891 13.8796 61.8188 11.0109C56.2078 5.20307 49.2047 1.60307 41.0625 0.351509C39.3187 0.0843277 34.5094 -0.0281754 32.6672 0.140572ZM39.4875 2.40464C46.9828 3.2062 53.8734 6.41245 59.2875 11.5734C71.6203 23.3296 73.2234 42.4406 63.0281 56.1515C62.0297 57.4874 59.4 60.4687 59.2172 60.4687C59.1609 60.4687 59.0344 59.9484 58.9359 59.3156C57.6562 50.7656 51.7922 43.6781 43.6078 40.7812L42.1594 40.2609L43.3266 39.4734C46.1531 37.589 48.0516 34.9171 48.9656 31.5281C49.3875 29.939 49.3875 26.9859 48.9656 25.2562C47.475 19.2515 42.1312 15.0468 36 15.0468C28.9828 15.0468 23.2031 20.489 22.6969 27.5624C22.5141 29.9531 23.2031 32.8499 24.4828 35.0999C25.2984 36.5343 27.1266 38.4609 28.6453 39.4734L29.8406 40.2609L28.5328 40.7249C20.2078 43.6921 14.3437 50.7234 13.0781 59.2312C12.9797 59.9203 12.8391 60.4687 12.7828 60.4687C12.6 60.4687 9.97031 57.4874 8.92969 56.0953C1.125 45.6328 0.0984346 31.4437 6.34219 19.8843C11.3062 10.6734 20.5594 4.17651 30.9656 2.61558C31.7672 2.48901 32.6391 2.37651 32.9062 2.34839C34.0594 2.22182 38.2219 2.26402 39.4875 2.40464ZM38.0109 17.4937C42.2156 18.3093 45.5344 21.3609 46.7016 25.5374C47.1094 26.9718 47.1516 29.5312 46.7859 31.0078C45.8156 34.889 42.6656 38.0671 38.7422 39.1078C37.1812 39.5156 34.8187 39.5296 33.2719 39.1078C30.0516 38.2499 27.4922 36.1687 26.0859 33.2578C25.2141 31.4578 24.975 30.3749 24.975 28.3359C24.9891 25.1296 26.1141 22.514 28.3922 20.3484C31.0078 17.8874 34.5375 16.8328 38.0109 17.4937ZM39.6984 41.8359C42.7781 42.3843 45.9984 43.7906 48.5297 45.689C53.4516 49.3874 56.4187 54.8718 56.8969 61.1437L56.9953 62.4093L55.9125 63.2109C54.2531 64.4343 52.7203 65.3484 50.5547 66.389C47.4047 67.9218 44.1984 68.9062 40.6547 69.4265C38.4047 69.764 33.5953 69.764 31.3453 69.4265C25.7906 68.5968 20.4328 66.4171 16.0453 63.1687L15.0047 62.4093L15.1031 61.1437C15.5812 54.8578 18.5344 49.4156 23.4703 45.689C26.4375 43.4531 29.925 42.089 34.0312 41.5687C34.9875 41.4562 38.475 41.6109 39.6984 41.8359Z" fill="#003F80"/>
<path d="M35.3672 47.9953C35.2266 48.1078 34.6359 49.1344 34.0453 50.2875L32.9766 52.3828L30.7406 52.6922C28.1812 53.0578 27.8437 53.2266 27.8437 54.1266C27.8437 54.5906 27.9844 54.7734 29.5453 56.2922L31.2469 57.9375L30.8812 60.0328C30.4312 62.6203 30.4312 62.7891 30.8812 63.2391C31.3734 63.7313 31.7391 63.6469 34.0312 62.4516C35.0719 61.9031 35.9719 61.4531 36.0141 61.4531C36.0703 61.4531 37.0125 61.9312 38.0953 62.5078C39.1922 63.0844 40.2469 63.5625 40.4437 63.5625C40.9078 63.5625 41.4844 62.9719 41.4844 62.4797C41.4844 62.2687 41.3156 61.1578 41.1187 60.0187L40.7531 57.9375L42.4547 56.2781C44.0156 54.7734 44.1562 54.5906 44.1562 54.1266C44.1562 53.2266 43.8187 53.0578 41.2594 52.6922L39.0234 52.3687L37.9547 50.2875C37.3641 49.1344 36.7734 48.1078 36.6328 47.9953C36.4781 47.8969 36.1969 47.8125 36 47.8125C35.8031 47.8125 35.5219 47.8969 35.3672 47.9953ZM36.7312 52.9172C37.4766 54.4359 37.5187 54.45 39.4172 54.7031L40.6547 54.8719L39.5297 56.0391C38.8969 56.6719 38.3906 57.2906 38.3906 57.4172C38.3906 57.5297 38.4891 58.1344 38.6016 58.7391C38.9391 60.4969 38.9812 60.4406 37.6172 59.7094C36.9562 59.3578 36.2391 59.0625 36.0141 59.0625C35.7891 59.0625 35.0578 59.3578 34.3969 59.7094C33.0047 60.4406 33.075 60.5109 33.3984 58.6687C33.5109 58.0359 33.5531 57.4031 33.5109 57.2625C33.4687 57.1359 32.9625 56.5453 32.3859 55.9547L31.3312 54.8719L32.5687 54.7172C34.4812 54.45 34.5234 54.4359 35.2687 52.9172C35.6344 52.2 35.9578 51.6094 36 51.6094C36.0422 51.6094 36.3656 52.2 36.7312 52.9172Z" fill="#003F80"/>
</g>
<defs>
<clipPath id="clip0_33_1309">
<rect width="72" height="72" fill="white"/>
</clipPath>
</defs>
</svg>
