<svg width="72" height="72" viewBox="0 0 72 72" fill="none" xmlns="http://www.w3.org/2000/svg">
<g clip-path="url(#clip0_33_1316)">
<path d="M31.4438 0.351646C30.6563 0.632896 29.9391 1.26571 29.5313 2.05322L29.1797 2.72821L29.1375 7.87509L29.0953 13.022L27.5906 12.7548C25.5094 12.4032 21.1078 12.4876 19.0969 12.9235C11.7563 14.5266 5.82188 19.1954 2.61563 25.8751C1.37813 28.4626 0.745319 30.6985 0.435944 33.497C0.154694 36.0282 0.295319 38.5876 0.857819 41.1329C1.26563 42.9329 1.72969 44.2688 2.61563 46.1251C5.80782 52.8048 11.7703 57.4876 19.0828 59.0766C21.0375 59.4985 25.2422 59.611 27.2953 59.2876C28.0969 59.161 29.1094 58.9641 29.5313 58.8516L30.3047 58.6407L36.7031 65.0251C40.2188 68.5407 43.3125 71.5079 43.5656 71.6485C44.2266 71.972 45.3938 71.9438 46.0688 71.5923C46.8844 71.1845 71.3672 46.6173 71.6484 45.9563C72.2531 44.4798 71.3391 42.6235 69.7922 42.2016C69.4688 42.1032 67.5 42.047 64.8703 42.047H60.4688V22.4579V2.8829L60.1313 2.16571C59.7516 1.33602 58.8656 0.534462 58.0922 0.309464C57.2344 0.0422745 32.175 0.084465 31.4438 0.351646ZM57.8109 2.6579L58.1484 2.92509L58.2188 22.8938L58.2891 42.8766L58.5844 43.2704C58.7391 43.4813 59.0906 43.8048 59.3438 43.9735C59.8078 44.297 59.8641 44.297 64.4344 44.297C69.1453 44.297 69.6094 44.3391 69.6094 44.8313C69.6094 45.1829 45.1406 69.6095 44.7891 69.6095C44.6063 69.6095 42.4688 67.5704 38.6297 63.7313L32.7516 57.8532L34.2 57.136C43.2703 52.622 48.4875 42.9329 47.1797 33.0188C46.8281 30.361 46.2375 28.3501 45.0703 25.9032C42.4969 20.5454 38.1656 16.4251 32.7375 14.2173L31.4297 13.6829V8.38134V3.06571L31.8234 2.72821L32.2172 2.39071H44.8453C57.0797 2.39071 57.5016 2.40478 57.8109 2.6579ZM28.125 15.1173C35.6766 16.7907 41.7234 22.2188 44.0859 29.4329C44.8313 31.7251 45.0703 33.3423 45.0703 36.0001C45.0703 38.6579 44.8313 40.2751 44.0859 42.5673C41.7094 49.8376 35.5922 55.2938 27.9844 56.911C26.2688 57.2766 21.3891 57.2766 19.7016 56.911C16.7906 56.2782 13.8094 54.9845 11.4609 53.3251C10.8422 52.8751 9.63282 51.8204 8.78907 50.9766C5.68126 47.8829 3.68438 44.086 2.86876 39.7267C2.50313 37.786 2.50313 34.2141 2.86876 32.2735C4.54219 23.3298 11.3766 16.5798 20.3906 14.9626C21.8672 14.7095 26.6906 14.7938 28.125 15.1173Z" fill="#003F80"/>
<path d="M20.7422 18.6471C13.6266 19.9127 8.07187 25.3971 6.52499 32.6533C6.17343 34.2565 6.17343 37.744 6.52499 39.3471C8.09999 46.7158 13.6547 52.1018 21.0094 53.3815C22.95 53.719 26.1844 53.5924 28.1109 53.0861C34.8187 51.3424 39.6844 46.2236 41.1469 39.3471C41.4984 37.744 41.4984 34.2565 41.1469 32.6533C39.5859 25.3408 34.0031 19.8705 26.8031 18.633C25.2562 18.3658 22.2609 18.3799 20.7422 18.6471ZM27.8297 21.1502C31.0922 22.0643 34.0031 24.019 36.0141 26.6486C42.6797 35.3955 38.4047 47.8971 27.7453 50.8783C26.4797 51.2299 26.1562 51.258 23.8359 51.258C21.5156 51.258 21.1922 51.2299 19.9266 50.8783C13.9359 49.2049 9.54843 44.3252 8.64843 38.2924C8.38124 36.5486 8.38124 35.4518 8.64843 33.708C9.63281 27.1408 14.6812 22.0221 21.3609 20.7986C21.7125 20.7424 23.0203 20.7143 24.2578 20.7424C26.1562 20.7846 26.7187 20.8408 27.8297 21.1502Z" fill="#003F80"/>
<path d="M23.1609 24.8906C22.8656 25.1297 22.7813 25.3547 22.6969 26.0156C22.6125 26.775 22.5703 26.8594 22.275 26.8594C22.0922 26.8594 21.6 26.9859 21.1781 27.1406C18.9703 27.9703 17.8031 30.3891 18.2672 33.1172C18.5625 34.8188 19.3359 35.8875 20.7703 36.5906C21.6563 37.0266 21.8109 37.0547 23.6953 37.125C25.6078 37.1953 25.7063 37.2094 26.1984 37.5891C26.8594 38.0953 27.1547 38.6578 27.2391 39.6422C27.3234 40.6125 27.1125 41.4703 26.6344 42.0469C26.0156 42.7781 25.6359 42.8906 23.7938 42.8906C22.2891 42.8906 22.0781 42.8625 21.6422 42.5672C20.9813 42.1312 20.5453 41.4281 20.4469 40.6266C20.3906 40.2609 20.2359 39.825 20.0813 39.6703C19.8 39.3609 19.1391 39.2766 18.7172 39.5156C17.6766 40.0641 18.3094 42.7078 19.8 44.0297C20.4328 44.5781 21.6844 45.1406 22.275 45.1406C22.5703 45.1406 22.6125 45.225 22.6969 45.9844C22.7813 46.6453 22.8656 46.8703 23.1609 47.1094C23.625 47.4609 24.0469 47.4609 24.5109 47.1094C24.8063 46.8703 24.8906 46.6453 24.975 45.9844C25.0594 45.225 25.1016 45.1406 25.3969 45.1406C26.0016 45.1406 27.2391 44.5781 27.8859 44.0016C28.7719 43.2422 29.3344 42.0469 29.4609 40.7531C29.7 38.2078 28.8 36.3516 26.9016 35.4094C26.0156 34.9734 25.8609 34.9453 23.9766 34.875C22.0641 34.8047 21.9656 34.7906 21.4734 34.4109C20.8125 33.9047 20.5172 33.3422 20.4328 32.3578C20.3484 31.3875 20.5594 30.5297 21.0375 29.9531C21.6563 29.2219 22.0359 29.1094 23.8781 29.1094C25.3828 29.1094 25.5938 29.1375 26.0297 29.4328C26.6766 29.8687 27.1125 30.5438 27.225 31.3031C27.2672 31.6547 27.4219 32.0625 27.5625 32.2313C27.9 32.6531 28.7297 32.6531 29.1516 32.2313C29.8828 31.4859 29.1938 29.1375 27.9 27.9984C27.2531 27.4219 26.0016 26.8594 25.3969 26.8594C25.1016 26.8594 25.0594 26.775 24.975 26.0156C24.8906 25.3547 24.8063 25.1297 24.5109 24.8906C24.3141 24.7359 24.0047 24.6094 23.8359 24.6094C23.6672 24.6094 23.3578 24.7359 23.1609 24.8906Z" fill="#003F80"/>
</g>
<defs>
<clipPath id="clip0_33_1316">
<rect width="72" height="72" fill="white"/>
</clipPath>
</defs>
</svg>
