<svg width="155" height="88" viewBox="0 0 155 88" fill="none" xmlns="http://www.w3.org/2000/svg">
<path d="M16.702 4L23.7482 47.736L30.2724 4H43.5819V65.6H34.5349V21.424L27.9237 65.6H18.8768L11.7436 22.04V65.6H3.39258V4H16.702Z" fill="#858585"/>
<path d="M66.5486 4L76.2915 65.6H66.6356L64.9828 54.424H53.2392L51.5864 65.6H42.8004L52.5433 4H66.5486ZM59.0675 14.912L54.457 46.064H63.678L59.0675 14.912ZM122.794 65.6L113.486 41.048L110.528 46.68V65.6H100.959V4H110.528V30.84L123.055 4H132.623L119.314 31.456L132.623 65.6H122.794Z" fill="#535353"/>
<path d="M81.7914 65.6H72.0486C73.0055 63.312 73.0925 61.112 73.0925 58.12V48.616C73.0925 42.192 74.6583 37.528 79.4427 35.504C75.1802 33.48 73.1795 29.344 73.1795 23.008V18.168C73.1795 8.664 77.442 4 87.3588 4H101.799V65.6H92.2302V40.52H88.9246C84.5751 40.52 82.6613 42.632 82.6613 48.352V58.032C82.6613 63.048 82.3134 64.016 81.7914 65.6ZM92.2302 12.8H87.6198C84.2272 12.8 82.7483 14.736 82.7483 19.136V25.208C82.7483 30.136 84.9231 31.72 88.4897 31.72H92.2302V12.8Z" fill="#8F181B"/>
<path d="M7.95297 72.8799C6.73791 72.8799 5.78286 73.2914 5.08781 74.1143C4.39275 74.9372 4.04523 76.0621 4.04523 77.4893C4.04523 78.9633 4.38245 80.1014 5.05692 80.9034C5.73138 81.7002 6.69157 82.0986 7.93752 82.0986C8.7407 82.0986 9.64427 81.9476 10.6482 81.6455V82.8956C10.1694 83.0726 9.70863 83.1924 9.26585 83.255C8.82307 83.3226 8.31336 83.3565 7.73673 83.3565C6.07375 83.3565 4.79176 82.846 3.89077 81.8252C2.99492 80.7991 2.547 79.3487 2.547 77.4737C2.547 76.2965 2.76066 75.2654 3.18799 74.3799C3.62047 73.4945 4.24602 72.8122 5.06464 72.333C5.8884 71.8538 6.85633 71.6143 7.96842 71.6143C9.16287 71.6143 10.2029 71.8383 11.0884 72.2862L10.5169 73.5049C9.61595 73.0882 8.76129 72.8799 7.95297 72.8799ZM20.1937 83.2002L18.8344 79.6612H14.3552L13.0114 83.2002H11.575L15.9846 71.7314H17.2667L21.6687 83.2002H20.1937ZM18.4096 78.3878L17.1432 74.9268L16.6026 73.2159C16.448 73.8409 16.2859 74.4111 16.1161 74.9268L14.834 78.3878H18.4096ZM31.353 83.2002H29.9321V73.0439H26.3565L26.117 74.9034C25.7926 77.4658 25.5095 79.3018 25.2675 80.4111C25.0256 81.5206 24.7089 82.294 24.3176 82.7314C23.9315 83.1638 23.4038 83.3799 22.7344 83.3799C22.3534 83.3799 22.0111 83.3148 21.7073 83.1846V81.9815C21.9751 82.1118 22.2659 82.1769 22.58 82.1769C22.9867 82.1769 23.3085 81.919 23.5453 81.4034C23.7873 80.8825 24.0473 79.7081 24.3254 77.8799C24.6085 76.0518 24.8918 74.018 25.1749 71.7783H31.353V83.2002ZM44.2811 77.4737C44.2811 79.3018 43.8229 80.7393 42.9064 81.7862C41.9952 82.833 40.7184 83.3565 39.076 83.3565C37.4129 83.3565 36.1258 82.8434 35.2144 81.8174C34.3083 80.7862 33.8553 79.333 33.8553 77.458C33.8553 75.5986 34.3058 74.1586 35.2068 73.1377C36.113 72.1118 37.4078 71.5986 39.0913 71.5986C40.7286 71.5986 42.0028 72.1194 42.9141 73.1612C43.8255 74.1977 44.2811 75.6351 44.2811 77.4737ZM35.3535 77.4737C35.3535 78.9841 35.6701 80.1351 36.3034 80.9268C36.9367 81.7185 37.8608 82.1143 39.076 82.1143C40.2858 82.1143 41.2049 81.7236 41.8329 80.9425C42.4612 80.1612 42.7751 79.0049 42.7751 77.4737C42.7751 75.9476 42.4637 74.7991 41.8407 74.0284C41.2177 73.2524 40.3013 72.8642 39.0913 72.8642C37.866 72.8642 36.9367 73.2575 36.3034 74.0439C35.6701 74.8252 35.3535 75.9684 35.3535 77.4737ZM55.4174 83.2002H53.9963V77.8721H48.2042V83.2002H46.7833V71.7783H48.2042V76.6065H53.9963V71.7783H55.4174V83.2002ZM70.0058 83.2002H68.2913L63.1866 77.4111V83.2002H61.7656V71.7783H63.1866V77.3097L68.1678 71.7783H69.7818L64.8778 77.3252L70.0058 83.2002ZM78.7712 75.1377C78.7712 76.3044 78.3773 77.2002 77.5895 77.8252C76.8019 78.445 75.6924 78.755 74.261 78.755H72.9636V83.2002H71.5426V71.7783H74.5313C77.358 71.7783 78.7712 72.8982 78.7712 75.1377ZM72.9636 77.5206H74.0989C75.2212 77.5206 76.0348 77.3383 76.5393 76.9737C77.0439 76.6039 77.2961 76.0127 77.2961 75.2002C77.2961 74.4658 77.0619 73.9164 76.5934 73.5518C76.1248 73.1873 75.3938 73.0049 74.4 73.0049H72.9636V77.5206ZM87.8146 83.2002L86.4554 79.6612H81.9762L80.6324 83.2002H79.196L83.6058 71.7314H84.8877L89.2897 83.2002H87.8146ZM86.0307 78.3878L84.7641 74.9268L84.2235 73.2159C84.069 73.8409 83.9069 74.4111 83.737 74.9268L82.455 78.3878H86.0307ZM95.6842 72.8799C94.469 72.8799 93.514 73.2914 92.8189 74.1143C92.124 74.9372 91.7765 76.0621 91.7765 77.4893C91.7765 78.9633 92.1137 80.1014 92.7881 80.9034C93.4625 81.7002 94.4227 82.0986 95.6687 82.0986C96.4719 82.0986 97.3754 81.9476 98.3795 81.6455V82.8956C97.9005 83.0726 97.4398 83.1924 96.997 83.255C96.5543 83.3226 96.0445 83.3565 95.468 83.3565C93.8049 83.3565 92.523 82.846 91.6219 81.8252C90.7261 80.7991 90.2782 79.3487 90.2782 77.4737C90.2782 76.2965 90.4919 75.2654 90.9192 74.3799C91.3516 73.4945 91.9772 72.8122 92.7958 72.333C93.6195 71.8538 94.5875 71.6143 95.6995 71.6143C96.894 71.6143 97.9341 71.8383 98.8196 72.2862L98.2482 73.5049C97.3471 73.0882 96.4924 72.8799 95.6842 72.8799ZM110.543 77.4737C110.543 79.3018 110.085 80.7393 109.168 81.7862C108.257 82.833 106.98 83.3565 105.338 83.3565C103.675 83.3565 102.388 82.8434 101.476 81.8174C100.57 80.7862 100.117 79.333 100.117 77.458C100.117 75.5986 100.567 74.1586 101.469 73.1377C102.375 72.1118 103.67 71.5986 105.353 71.5986C106.99 71.5986 108.265 72.1194 109.176 73.1612C110.087 74.1977 110.543 75.6351 110.543 77.4737ZM101.615 77.4737C101.615 78.9841 101.932 80.1351 102.565 80.9268C103.198 81.7185 104.123 82.1143 105.338 82.1143C106.548 82.1143 107.467 81.7236 108.095 80.9425C108.723 80.1612 109.037 79.0049 109.037 77.4737C109.037 75.9476 108.725 74.7991 108.102 74.0284C107.48 73.2524 106.563 72.8642 105.353 72.8642C104.128 72.8642 103.198 73.2575 102.565 74.0439C101.932 74.8252 101.615 75.9684 101.615 77.4737ZM116.389 83.2002H114.96V73.0439H111.431V71.7783H119.895V73.0439H116.389V83.2002ZM128.954 79.8565C128.954 80.9346 128.614 81.7628 127.935 82.3409C127.26 82.9138 126.266 83.2002 124.954 83.2002H121.617V71.7783H123.038V76.6065H124.776C126.14 76.6065 127.178 76.8799 127.888 77.4268C128.599 77.9737 128.954 78.7836 128.954 79.8565ZM123.038 81.9815H124.822C125.739 81.9815 126.411 81.8069 126.838 81.458C127.265 81.1039 127.479 80.57 127.479 79.8565C127.479 79.1586 127.258 78.6533 126.815 78.3409C126.372 78.0284 125.641 77.8721 124.622 77.8721H123.038V81.9815ZM132.12 83.2002H130.692V71.7783H132.12V83.2002Z" fill="#8F181B"/>
</svg>
