<svg xmlns="http://www.w3.org/2000/svg" xmlns:xlink="http://www.w3.org/1999/xlink" xml:space="preserve" width="138mm" height="50mm" version="1.1" viewBox="0 0 13800 5000">
   <path fill="#fff" d="M5449.23 1687.62c0.34,-403.89 -396.92,-462.38 -766.86,-400.45 -309.53,51.82 -660.29,168.73 -916.83,290.54 -763.51,362.52 -1624.25,900.88 -2394.04,1217.55 -232.4,95.6 -744.09,333.72 -868.12,19.15 -140.51,-356.33 436.74,-1103.35 678.44,-1391.42l133.21 -164.22c-100.4,60.84 -332.79,331.19 -422.45,444.73 -297.47,376.71 -892.2,1210.81 -892.54,1706.75l-0.03 44.36c-0.19,284.79 217.66,415.04 498.96,414.99 422.49,-0.08 856.45,-167.73 1200.56,-317.93 82.56,-36.01 165.06,-82.18 246.07,-123.97 640.84,-330.51 2224.31,-1266.41 2737.2,-1265.97 117.96,0.1 200.18,41.77 250.26,126.26 177.84,300 -315.04,966.54 -482.38,1193.68 -49.55,67.26 -98.5,131.06 -153.14,194.5 -15.52,18.03 -22.33,28.49 -39.35,49.54 -35.66,44.04 -90.59,96.49 -117.67,145.01 38.22,-19.19 83.49,-69.97 117.63,-108.1 39.06,-43.6 65.48,-72.65 105.67,-108.99 117.88,-106.63 281.96,-339.11 386.08,-479.43 260.63,-351.17 698.93,-1005.17 699.33,-1486.58z"/>
   <path fill="#fff" d="M10125.92 1487.99l-355.91 0c-16.06,3.85 -391.87,491.91 -451.43,569.67 -51.15,66.81 -97.42,120.39 -146.45,186.45 -139.73,188.35 -303.07,382.43 -444.13,569.39l-110.03 141.56c-28.38,38.79 -41.48,43.76 -41.02,43.9l-598.98 -1510.94 -346.96 0.55 -455.03 2276.56 402.96 -0.24 300.06 -1511.64c11.36,10.62 4.34,1.02 15.6,19.76l447.83 1083.66c77.08,182.61 15.95,147.86 249.24,147.82 78.96,-99.79 162.78,-205.03 241.49,-305.16 145.23,-184.73 336.02,-434.61 483.09,-611.87 25.78,-31.07 222.12,-272.49 235.34,-305.12 14.82,23.29 1.93,56.15 -5.17,91.29l-55.04 277.55c-24.22,124.81 -48.97,244.65 -73.93,370.21 -25.16,126.62 -48.52,245.09 -73.55,370.39 -24.39,122.02 -54.55,251.09 -73.24,373.45l400.32 -2.5 454.94 -2274.74z"/>
   <path fill="#fff" d="M13806.18 1487.9l-420.7 1.93c-28.1,161.29 -298.29,1555.52 -318.33,1587.33l-933.1 -1589.17 -350.91 0.16 -455.29 2276.98 419.63 -0.21 321.84 -1589.84 930.64 1590.01 351.29 -2.36 454.93 -2274.83z"/>
   <polygon fill="#fff" points="6134.78,3763.59 6558.57,3765.18 7013.79,1489.89 6590.06,1487.9 "/>
   <polygon fill="#fff" points="11165.83,1487.9 10742.32,1489.92 10288.36,3765.13 10710.18,3764.98 "/>
   <path fill="#fff" d="M1986.57 3491.57c33.77,107.34 327.7,33.09 414.05,6.06 121.56,-38.08 251.35,-99.36 358.69,-152.2 216.53,-106.53 467.5,-272.36 653.34,-360.6 162.5,-77.15 718.39,-303.39 666.29,74.6 -16.18,117.42 -95.93,274.4 -150.01,359.65l-201.51 300.89c121.39,-87.04 401.37,-547.25 469.91,-734.92 190.18,-520.82 -303.69,-429.17 -613.41,-302.29 -400.95,164.25 -1009.29,580.33 -1491.15,766.16 -19.97,7.7 -35.68,14.11 -54.2,19.96l-47.56 19.29c-0.73,-1.43 -3.05,2.14 -4.44,3.4z"/>
   <path fill="#fff" d="M1310.42 2767.61c42.04,-8.49 119.61,-44.16 163.3,-62.42l114.4 -48.43c7.22,-3.02 12.72,-4.86 20.44,-9.37 15.6,-9.14 10.03,-5.85 18.04,-13.43 -33.04,-55.31 -68.69,-72.25 -68.69,-192.23 0,-403.39 539.48,-1012.42 578.29,-1094.47 -97.46,60.65 -401.02,485.54 -489.63,628.55 -122.4,197.52 -316.44,499.25 -336.15,791.8z"/>
   <path fill="#fff" d="M5132.68 3373.58c169.34,-31.93 305.07,92.56 331.66,231.41 33.68,175.84 -93.73,313.04 -233.11,338.24 -368.88,66.73 -486.16,-496.56 -98.55,-569.65zm390.75 347.2c41.97,-210.74 -113.99,-377.66 -284.09,-407.38 -207.12,-36.18 -371.45,109.84 -402.58,279.44 -38.46,209.54 109.39,380.23 282.16,409.32 211.53,35.63 369.93,-107.67 404.51,-281.38z"/>
   <path fill="#fff" d="M5128.33 3633.95l19.15 -99.65c48.08,-0.18 171.5,-20.26 144.86,54.85 -18.27,51.54 -101.2,50.51 -164.01,44.8zm-130.88 222.43c110.67,0.28 76.48,19.43 107.15,-120.86 3.58,-16.36 6.2,-35.8 22.47,-39.66 83.82,-19.87 105.42,101.39 133.3,157.48l86.07 3.76c-11.13,-44.33 -49.8,-135.61 -80.24,-155.36 1.49,-1.54 4.09,-5.58 5,-4.03 0.9,1.5 3.76,-3.05 5.02,-3.81 8.92,-5.43 6.56,-4.37 15.79,-8.62 27.13,-12.53 48.9,-14.2 69.59,-48.29 21.79,-35.88 24.58,-94.62 1.87,-130.04 -38.15,-59.47 -199.74,-40.36 -285.48,-40.36l-80.54 389.79z"/>
</svg>