<svg width="24" height="24" viewBox="0 0 24 24" fill="none" xmlns="http://www.w3.org/2000/svg">
<path fill-rule="evenodd" clip-rule="evenodd" d="M3.47007 12.53C3.32962 12.3894 3.25073 12.1987 3.25073 12C3.25073 11.8012 3.32962 11.6106 3.47007 11.47L9.47007 5.47C9.53873 5.39631 9.62153 5.33721 9.71353 5.29622C9.80553 5.25523 9.90485 5.23318 10.0056 5.23141C10.1063 5.22963 10.2063 5.24816 10.2997 5.28588C10.3931 5.3236 10.4779 5.37974 10.5491 5.45096C10.6203 5.52218 10.6765 5.60701 10.7142 5.7004C10.7519 5.79379 10.7704 5.89382 10.7687 5.99452C10.7669 6.09522 10.7448 6.19454 10.7039 6.28654C10.6629 6.37854 10.6038 6.46134 10.5301 6.53L5.81007 11.25H20.0001C20.199 11.25 20.3898 11.329 20.5304 11.4697C20.6711 11.6103 20.7501 11.8011 20.7501 12C20.7501 12.1989 20.6711 12.3897 20.5304 12.5303C20.3898 12.671 20.199 12.75 20.0001 12.75H5.81007L10.5301 17.47C10.6038 17.5387 10.6629 17.6215 10.7039 17.7135C10.7448 17.8055 10.7669 17.9048 10.7687 18.0055C10.7704 18.1062 10.7519 18.2062 10.7142 18.2996C10.6765 18.393 10.6203 18.4778 10.5491 18.549C10.4779 18.6203 10.3931 18.6764 10.2997 18.7141C10.2063 18.7518 10.1063 18.7704 10.0056 18.7686C9.90485 18.7668 9.80553 18.7448 9.71353 18.7038C9.62153 18.6628 9.53873 18.6037 9.47007 18.53L3.47007 12.53Z" fill="#919191"/>
</svg>
