<svg width="21" height="22" viewBox="0 0 21 22" fill="none" xmlns="http://www.w3.org/2000/svg">
<path d="M16.6684 14.1689C19.0684 10.9689 19.6684 7.6691 19.6684 5.66895C19.6684 3.14964 18.1684 1.66895 17.1684 1.1691C16.835 0.835764 15.6684 0.769098 13.6684 3.1691C11.6684 5.5691 11.835 6.33561 12.1684 6.66895L13.6684 7.6691C14.0017 8.33576 14.2684 10.6689 12.6684 12.6689C11.0684 14.6689 8.6682 15.6689 7.66837 15.1691L6.66837 13.6691C5.6682 12.6689 4.6682 13.1691 2.6682 15.1691C0.668199 17.1691 -0.831978 21.1691 6.16832 21.1691C9.66797 21.1691 14.2684 17.3689 16.6684 14.1689Z" fill="#fff" stroke="#fff" stroke-linejoin="round"/>
</svg>
