<svg xmlns="http://www.w3.org/2000/svg" fill-rule="evenodd" viewBox="0 0 100 100">
    <path d="M65.481 55.325a1.49 1.49 0 0 0-.751-.297 37.66 37.66 0 0 0-13.432-2.47 37.67 37.67 0 0 0-13.43 2.469 1.493 1.493 0 0 0-.763.301c-13.866 5.629-23.673 19.236-23.673 35.1a1.5 1.5 0 0 0 1.5 1.5h72.733a1.5 1.5 0 0 0 1.5-1.5c0-15.867-9.813-29.477-23.684-35.103zm-2.461 2.261c-.545 5.992-5.591 10.704-11.722 10.704-6.133 0-11.181-4.711-11.727-10.702a34.714 34.714 0 0 1 11.727-2.03c4.11 0 8.057.716 11.722 2.028zM16.464 88.928c.569-13.38 8.714-24.829 20.243-30.164 1.09 7.081 7.208 12.526 14.591 12.526 7.381 0 13.497-5.447 14.587-12.529 11.532 5.334 19.68 16.784 20.248 30.166H16.464zm34.199-40.485c11.997 0 21.757-9.76 21.757-21.757 0-.283-.011-.564-.021-.844.011-.073.022-.146.022-.223a1.49 1.49 0 0 0-.054-.38 21.599 21.599 0 0 0-2.906-9.488 1.517 1.517 0 0 0-.167-.29C65.48 9.154 58.556 4.928 50.663 4.928c-7.9 0-14.828 4.233-18.64 10.549-.033.048-.059.1-.087.151a21.605 21.605 0 0 0-2.978 9.625c-.03.117-.05.238-.05.365 0 .067.011.131.02.195-.011.289-.022.579-.022.871 0 11.998 9.76 21.759 21.757 21.759zM34.134 17.834h33.059a18.603 18.603 0 0 1 2.031 6.285H32.103a18.595 18.595 0 0 1 2.031-6.285zm16.529 27.609c-10.197 0-18.502-8.183-18.735-18.324h37.47c-.233 10.141-8.538 18.324-18.735 18.324zm0-37.515c5.85 0 11.08 2.695 14.523 6.905H36.14c3.443-4.21 8.673-6.905 14.523-6.905z" style="fill: rgb(102, 153, 204);"/>
</svg>